<?xml version="1.0" ?><svg viewBox="0 0 64 64" xmlns="http://www.w3.org/2000/svg"><g data-name="Yellow Boxfish" id="Yellow_Boxfish"><path d="M47.22,25.09a17.46,17.46,0,0,0-11.82-.47,28.86,28.86,0,0,0-5.91,3,9.47,9.47,0,0,0-3.44-1.07c-4.43-.47-7.74.86-11.08,4.45a5,5,0,0,0-1.33,3.88c.23,2.82,2.63,5.45,3.51,5.53a10.64,10.64,0,0,0-.52,1.42c-2.62-.55-6.28-.75-8-.18-2.39.92-3.29,4.31-2.1,7.89,1.05,3.12,3.27,5.17,5.48,5.17a3.62,3.62,0,0,0,1-.13c1.71-.58,4.38-2.95,5.63-4.27a5.43,5.43,0,0,0,.24,3.59,4.51,4.51,0,0,0,3,2.31,6.64,6.64,0,0,0,1.89.26c3,0,7.32-2.18,8.39-3.15a35.53,35.53,0,0,0,12.41-1.22,17.47,17.47,0,0,0,9.17-7.46,13.55,13.55,0,0,0,1.67-11.4A13.54,13.54,0,0,0,47.22,25.09Zm-31.59,9.6a3,3,0,0,1,.81-2.36c2.89-3.12,5.61-4.22,9.4-3.82a7.55,7.55,0,0,1,1.71.4A34.68,34.68,0,0,0,18,38.76,6.44,6.44,0,0,1,15.63,34.69ZM8.42,48.88c-.89-2.68-.25-5,.87-5.38l.28-.06a8.5,8.5,0,0,0,.2,5.2,8.92,8.92,0,0,0,2.6,4C11.17,53,9.31,51.54,8.42,48.88Zm14,5.38A2.6,2.6,0,0,1,20.65,53a3.7,3.7,0,0,1,0-2.51A24,24,0,0,0,28.8,53C26.24,54.25,24,54.72,22.42,54.26ZM52,43.57a16.19,16.19,0,0,1-2.92,3.51,24.35,24.35,0,0,1-7.2-12.35,1,1,0,1,0-2,.4,22.73,22.73,0,0,0,1.48,4.62c-2.16,1.13-4.56,2.42-5.31,3a2.75,2.75,0,0,0-1.2,2.3,2.6,2.6,0,0,0,1.27,2.13,9,9,0,0,0,4.54,1.48l.63,0a5.89,5.89,0,0,0,4.06-2.49,26.31,26.31,0,0,0,2.12,2.25,14.35,14.35,0,0,1-3.6,1.82c-6.11,2-19.63,1.63-24.13-2.71a1,1,0,0,0-.77-.27,1,1,0,0,0-.72.39,23.14,23.14,0,0,1-4,3.92A6.09,6.09,0,0,1,11.67,48a5.77,5.77,0,0,1,.15-4.73,22.91,22.91,0,0,1,5.29.7,1,1,0,0,0,1.26-.8C19.36,37,29.93,28.56,36,26.52A15.42,15.42,0,0,1,46.48,27a11.59,11.59,0,0,1,7,6.89,9.77,9.77,0,0,1,.37,1.6l-2.56.68a1,1,0,0,0-.7,1.23,1,1,0,0,0,1,.74,1.15,1.15,0,0,0,.26,0L54,37.48A13,13,0,0,1,52,43.57Zm-7.9.88a4.16,4.16,0,0,1-3,2.15,6.5,6.5,0,0,1-3.88-1.16.62.62,0,0,1-.33-.5.76.76,0,0,1,.36-.6c.53-.38,2.35-1.39,5-2.8A27,27,0,0,0,44.12,44.45Z"/><path d="M45.94,28.48a3.08,3.08,0,0,0-1.88,1.45,3.1,3.1,0,0,0,1.13,4.23A3.11,3.11,0,0,0,49.43,33a3.1,3.1,0,0,0-3.49-4.55ZM47.69,32a1.1,1.1,0,0,1-2-.27,1.09,1.09,0,0,1,.78-1.34.9.9,0,0,1,.28,0,1.08,1.08,0,0,1,.55.15,1,1,0,0,1,.51.66A1.07,1.07,0,0,1,47.69,32Z"/><path d="M50.57,14.19a4.49,4.49,0,0,0,0,9,4.51,4.51,0,0,0,4.49-4.49A4.5,4.5,0,0,0,50.57,14.19Zm2.49,4.49a2.49,2.49,0,1,1-2.49-2.49,2.48,2.48,0,0,1,2.49,2.49Z"/><path d="M20,14.3a5.55,5.55,0,1,0,5.56,5.55A5.56,5.56,0,0,0,20,14.3Zm0,9.1a3.55,3.55,0,1,1,3.56-3.55A3.55,3.55,0,0,1,20,23.4Z"/><path d="M33.52,9.56h0a4,4,0,1,0,4,4,3.92,3.92,0,0,0-1.17-2.81A4,4,0,0,0,33.52,9.56Zm0,6a2,2,0,0,1,0-4h0a2,2,0,0,1,0,4Z"/><circle cx="30.61" cy="33.38" r="1"/><circle cx="37.96" cy="31.09" r="1"/><circle cx="24.49" cy="39.39" r="1"/><circle cx="31.18" cy="41.48" r="1"/><circle cx="25.48" cy="46.84" r="1"/><circle cx="31.67" cy="48.27" r="1"/><circle cx="36.39" cy="37.56" r="1"/><circle cx="15.23" cy="46.45" r="1"/><circle cx="48.5" cy="39.97" r="1"/></g></svg>