<?xml version="1.0" ?><svg viewBox="0 0 64 64" xmlns="http://www.w3.org/2000/svg"><defs><style>.cls-1{fill:none;stroke:#000;stroke-linecap:round;stroke-linejoin:round;stroke-width:2px;}</style></defs><g id="honey"><line class="cls-1" x1="51.1287" x2="53.9571" y1="5.5858" y2="8.4142"/><line class="cls-1" x1="53.9571" x2="51.1287" y1="5.5858" y2="8.4142"/><circle cx="59.0429" cy="14.5" r="1.1324"/><circle class="cls-1" cx="8.1903" cy="10.2101" r="2.0846"/><path class="cls-1" d="M16.9085,23.7712A42.1618,42.1618,0,0,0,13,42a44.958,44.958,0,0,0,1.7081,12.4455A9.0544,9.0544,0,0,0,23.4,61H40.6a9.0544,9.0544,0,0,0,8.6918-6.5545A44.958,44.958,0,0,0,51,42a42.16,42.16,0,0,0-3.9089-18.2295"/><path class="cls-1" d="M47.5,19A3.5,3.5,0,0,1,51,22.5h0a3.1355,3.1355,0,0,1-2.6212,1.5516,3.1,3.1,0,0,1-2.5224-1.4036.897.897,0,0,0-1.5077,0,2.9684,2.9684,0,0,1-5.0449,0,.897.897,0,0,0-1.5077,0,2.9684,2.9684,0,0,1-5.0449,0,.897.897,0,0,0-1.5077,0,2.9684,2.9684,0,0,1-5.0449,0,.897.897,0,0,0-1.5077,0,2.9684,2.9684,0,0,1-5.0449,0,.897.897,0,0,0-1.5077,0,3.1,3.1,0,0,1-2.5225,1.4036A3.1337,3.1337,0,0,1,13,22.5088V22.5A3.5,3.5,0,0,1,16.5,19"/><path class="cls-1" d="M45.5,16A1.5,1.5,0,0,0,47,14.5h0A4.5,4.5,0,0,0,42.5,10h-21A4.5,4.5,0,0,0,17,14.5h0A1.5,1.5,0,0,0,18.5,16"/><rect class="cls-1" height="3" rx="1.5" width="37" x="13" y="16"/><line class="cls-1" x1="5" x2="57" y1="61" y2="61"/><circle cx="21.0429" cy="54.5" r="1.1324"/><circle cx="45.0429" cy="36.5" r="1.1324"/><circle cx="26.0429" cy="57.5" r="1.1324"/><circle cx="21.0429" cy="35.5" r="1.1324"/><polygon class="cls-1" points="38 38.437 38 33.531 32 29.531 26 33.531 26 38.531 20 42.531 20 47.437 26 51.531 32 47.437 38 51.531 44 47.437 44 42.531 38 38.437"/><polyline class="cls-1" points="26 38.531 32 42 32 47.437"/><line class="cls-1" x1="38" x2="32" y1="38.4374" y2="42"/></g></svg>