<?xml version="1.0" encoding="UTF-8" standalone="no"?>
<svg
   xmlns:dc="http://purl.org/dc/elements/1.1/"
   xmlns:cc="http://creativecommons.org/ns#"
   xmlns:rdf="http://www.w3.org/1999/02/22-rdf-syntax-ns#"
   xmlns:svg="http://www.w3.org/2000/svg"
   xmlns="http://www.w3.org/2000/svg"
   xmlns:sodipodi="http://sodipodi.sourceforge.net/DTD/sodipodi-0.dtd"
   xmlns:inkscape="http://www.inkscape.org/namespaces/inkscape"
   width="64pt"
   height="64pt"
   viewBox="0 0 22.577778 22.577778"
   version="1.1"
   id="svg831"
   inkscape:version="1.0 (4035a4fb49, 2020-05-01)"
   sodipodi:docname="21 - Cappucino.svg">
  <defs
     id="defs825">
    <pattern
       id="EMFhbasepattern"
       patternUnits="userSpaceOnUse"
       width="6"
       height="6"
       x="0"
       y="0" />
    <pattern
       id="EMFhbasepattern-9"
       patternUnits="userSpaceOnUse"
       width="6"
       height="6"
       x="0"
       y="0" />
    <pattern
       id="EMFhbasepattern-0"
       patternUnits="userSpaceOnUse"
       width="6"
       height="6"
       x="0"
       y="0" />
    <pattern
       id="EMFhbasepattern-7"
       patternUnits="userSpaceOnUse"
       width="6"
       height="6"
       x="0"
       y="0" />
    <pattern
       id="EMFhbasepattern-2"
       patternUnits="userSpaceOnUse"
       width="6"
       height="6"
       x="0"
       y="0" />
    <pattern
       id="EMFhbasepattern-98"
       patternUnits="userSpaceOnUse"
       width="6"
       height="6"
       x="0"
       y="0" />
    <pattern
       id="EMFhbasepattern-6"
       patternUnits="userSpaceOnUse"
       width="6"
       height="6"
       x="0"
       y="0" />
    <pattern
       id="EMFhbasepattern-01"
       patternUnits="userSpaceOnUse"
       width="6"
       height="6"
       x="0"
       y="0" />
    <pattern
       id="EMFhbasepattern-07"
       patternUnits="userSpaceOnUse"
       width="6"
       height="6"
       x="0"
       y="0" />
    <pattern
       id="EMFhbasepattern-8"
       patternUnits="userSpaceOnUse"
       width="6"
       height="6"
       x="0"
       y="0" />
    <pattern
       id="EMFhbasepattern-4"
       patternUnits="userSpaceOnUse"
       width="6"
       height="6"
       x="0"
       y="0" />
    <pattern
       id="EMFhbasepattern-40"
       patternUnits="userSpaceOnUse"
       width="6"
       height="6"
       x="0"
       y="0" />
    <pattern
       id="EMFhbasepattern-08"
       patternUnits="userSpaceOnUse"
       width="6"
       height="6"
       x="0"
       y="0" />
    <pattern
       id="EMFhbasepattern-04"
       patternUnits="userSpaceOnUse"
       width="6"
       height="6"
       x="0"
       y="0" />
    <pattern
       id="EMFhbasepattern-014"
       patternUnits="userSpaceOnUse"
       width="6"
       height="6"
       x="0"
       y="0" />
    <pattern
       id="EMFhbasepattern-27"
       patternUnits="userSpaceOnUse"
       width="6"
       height="6"
       x="0"
       y="0" />
    <pattern
       id="EMFhbasepattern-09"
       patternUnits="userSpaceOnUse"
       width="6"
       height="6"
       x="0"
       y="0" />
    <pattern
       id="EMFhbasepattern-5"
       patternUnits="userSpaceOnUse"
       width="6"
       height="6"
       x="0"
       y="0" />
    <pattern
       id="EMFhbasepattern-018"
       patternUnits="userSpaceOnUse"
       width="6"
       height="6"
       x="0"
       y="0" />
  </defs>
  <sodipodi:namedview
     id="base"
     pagecolor="#ffffff"
     bordercolor="#666666"
     borderopacity="1.0"
     inkscape:pageopacity="0.0"
     inkscape:pageshadow="2"
     inkscape:zoom="6.2578125"
     inkscape:cx="42.666667"
     inkscape:cy="42.666667"
     inkscape:document-units="pt"
     inkscape:current-layer="layer1"
     showgrid="false"
     units="pt"
     inkscape:window-width="1366"
     inkscape:window-height="705"
     inkscape:window-x="-8"
     inkscape:window-y="-8"
     inkscape:window-maximized="1"
     inkscape:pagecheckerboard="true"
     inkscape:showpageshadow="false"
     inkscape:object-paths="true"
     inkscape:snap-intersection-paths="true"
     inkscape:snap-smooth-nodes="true"
     inkscape:snap-midpoints="true"
     showguides="true"
     inkscape:snap-bbox="true"
     inkscape:bbox-nodes="true"
     inkscape:snap-nodes="false"
     inkscape:snap-global="true"
     inkscape:document-rotation="0">
    <inkscape:grid
       type="xygrid"
       id="grid1378" />
    <sodipodi:guide
       position="0.97013831,21.607643"
       orientation="78.000048,0"
       id="guide1380"
       inkscape:locked="false" />
    <sodipodi:guide
       position="0.97013831,0.97013129"
       orientation="0,78.000005"
       id="guide1382"
       inkscape:locked="false" />
    <sodipodi:guide
       position="21.607639,0.97013129"
       orientation="-78.000048,0"
       id="guide1384"
       inkscape:locked="false" />
    <sodipodi:guide
       position="21.607639,21.607643"
       orientation="0,-78.000005"
       id="guide1386"
       inkscape:locked="false" />
  </sodipodi:namedview>
  <metadata
     id="metadata828">
    <rdf:RDF>
      <cc:Work
         rdf:about="">
        <dc:format>image/svg+xml</dc:format>
        <dc:type
           rdf:resource="http://purl.org/dc/dcmitype/StillImage" />
        <dc:title></dc:title>
      </cc:Work>
    </rdf:RDF>
  </metadata>
  <g
     inkscape:label="Icon"
     inkscape:groupmode="layer"
     id="layer1"
     transform="translate(0,-274.42223)">
    <path
       sodipodi:nodetypes="cssscccssscccccscccsccccccsccccccccsscsssccccccsssccccssccccscscsscccccccccccscccccsssccccccsscccsscccssssccsscscscscccscscsccsccsccssssccscccccccccc"
       d="m 8.5909021,275.54025 c -0.3137765,0.47004 -0.4010488,0.95857 -0.3614651,1.40295 0.039581,0.44437 0.1902323,0.84834 0.3270075,1.22612 0.1367752,0.37777 0.2584986,0.72951 0.2873507,1.05644 0.028858,0.32693 -0.019539,0.62637 -0.2528931,0.97518 -0.1026632,0.15274 -0.061892,0.3598 0.091014,0.46223 0.153295,0.10165 0.3600306,0.0598 0.4615826,-0.0936 0.3144321,-0.47 0.4032958,-0.95845 0.3640647,-1.40295 -0.039227,-0.4445 -0.1902024,-0.84566 -0.3270075,-1.22352 -0.1368052,-0.37786 -0.2608252,-0.73203 -0.2899503,-1.05904 -0.029125,-0.32699 0.020138,-0.62453 0.2528931,-0.97322 0.1022216,-0.15262 0.061486,-0.35919 -0.091017,-0.46159 -0.054346,-0.0367 -0.1183549,-0.0567 -0.1950323,-0.0569 -0.1145606,0.008 -0.2090289,0.0615 -0.2665473,0.1479 z m 3.3693239,0.95998 c -0.0788,0.33433 -0.01468,0.80203 0.03858,1.2192 0.05327,0.41721 0.09569,0.78608 0.0052,1.16957 -0.04224,0.179 0.06868,0.35833 0.247694,0.40047 0.179198,0.0423 0.358632,-0.0691 0.400472,-0.24834 0.122862,-0.52075 0.06108,-0.98765 0.0078,-1.40491 -0.05328,-0.41725 -0.09808,-0.78415 -0.0078,-1.16761 0.04225,-0.17899 -0.06868,-0.35833 -0.281988,-0.4055 -0.200308,-0.003 -0.331158,0.10278 -0.409958,0.43712 z m -1.538601,2.34001 c 0.133918,0.54096 0.238031,0.97138 0.0195,1.44911 -0.07575,0.16697 -0.0023,0.36375 0.164479,0.44013 0.167482,0.0771 0.365695,0.004 0.442077,-0.16449 0.317821,-0.69478 0.154103,-1.3462 0.02014,-1.88728 -0.133946,-0.54107 -0.238147,-0.97217 -0.02014,-1.44976 0.07532,-0.16679 0.002,-0.36311 -0.164479,-0.43948 -0.04262,-0.0196 -0.08893,-0.0301 -0.147899,-0.0302 -0.134765,0.008 -0.243257,0.0828 -0.427278,0.48612 -0.184026,0.40336 -0.02031,1.0549 0.113589,1.59587 z m -3.9585522,3.20897 c -1.1690449,0 -2.1408642,0.87179 -2.3046609,1.99716 H 3.7995464 c -0.1840778,3.6e-4 -0.3329091,0.15007 -0.3322067,0.33415 v 4.61973 c 0,0.59634 0.1423871,1.66253 1.1799593,2.61411 0.4977844,0.45654 1.1321142,0.81609 1.849579,1.08634 H 2.8016211 c -0.547457,0 -0.9998791,0.45243 -0.9998791,0.99989 0,0.54745 0.4524221,0.99792 0.9998791,0.99792 h 1.3567908 l 1.2358698,1.23327 c 0.062307,0.0627 0.146974,0.098 0.2353415,0.0981 H 15.949562 c 0.08791,-5.3e-4 0.172051,-0.0359 0.234041,-0.0981 l 1.235221,-1.23327 h 1.35939 c 0.547457,0 0.997279,-0.45047 0.997279,-0.99792 0,-0.54746 -0.449822,-0.99989 -0.997279,-0.99989 h -4.529356 c 0.481034,-0.18108 0.925149,-0.40198 1.315184,-0.66571 h 1.311934 0.0026 c 1.13498,-0.0154 2.107008,-0.74758 2.791597,-1.66625 0.684592,-0.91867 1.108741,-2.03532 1.105848,-2.99249 -0.0057,-1.86593 -1.707754,-3.2391 -3.760271,-3.32208 -0.09255,-0.0151 -0.187812,-0.008 -0.284751,-0.008 -0.163433,-1.12536 -1.133013,-1.99715 -2.302058,-1.99715 -0.46853,0 -0.924053,0.14511 -1.272928,0.43882 -0.362886,-0.26874 -0.842533,-0.43882 -1.368493,-0.43882 -0.500883,0 -0.967929,0.16129 -1.33924,0.43882 -0.371964,-0.27691 -0.8402306,-0.43882 -1.3437895,-0.43882 -0.4689122,0 -0.9247596,0.14594 -1.2735761,0.44012 -0.3625137,-0.26951 -0.841122,-0.44012 -1.3678417,-0.44012 z m 1.6610375,1.08308 c 0.2157927,-0.26825 0.5648921,-0.41737 0.9803736,-0.41737 0.4326636,0 0.8186436,0.16721 1.1055161,0.42388 0.148568,0.13075 0.359694,0.13311 0.491156,0.004 0.266438,-0.26145 0.653223,-0.42777 1.086344,-0.42777 0.461858,0 0.886646,0.19891 1.158506,0.44467 0.182304,0.12772 0.390754,0.10681 0.507088,-0.0345 0.215976,-0.26438 0.563341,-0.41021 0.975825,-0.41021 0.808382,0 1.476223,0.56989 1.629839,1.33143 H 8.8242698 c -0.183835,7.3e-4 -0.3322802,0.15032 -0.3481808,0.24224 l -0.015911,2.75349 c 0,0.19017 -0.1440015,0.33416 -0.3341608,0.33416 -0.1901591,0 -0.3315577,-0.14399 -0.3315577,-0.33416 v -0.99792 c -6.656e-4,-0.1839 -0.1502626,-0.33229 -0.3341607,-0.33156 -0.1829361,6.3e-4 -0.3309287,0.14862 -0.3315577,0.33156 v 0.99792 0.66572 c 0,0.19017 -0.1440017,0.33415 -0.3341608,0.33415 -0.1901624,0 -0.3315578,-0.14398 -0.3315578,-0.33415 0.00439,-1.10701 -0.00823,-2.2248 0.00455,-3.32729 6.658e-4,-0.18384 -0.1477262,-0.33344 -0.3315578,-0.33416 H 4.8305912 c 0.1540839,-0.76154 0.8240563,-1.33143 1.6324417,-1.33143 l 2.99e-5,-2e-5 c 0.4658099,0 0.8925121,0.20179 1.1572017,0.45216 0.1774807,0.13113 0.3880407,0.10895 0.5038358,-0.0347 z m -3.9930027,1.58044 h 1.6655943 v 2.99508 c 0,0.54746 0.4504718,0.99989 0.9979286,0.99989 0.457099,0 0.8442675,-0.31702 0.9608715,-0.73984 0.1149556,0.0469 0.2396554,0.0741 0.3705655,0.0741 0.5474536,0 0.9979287,-0.45242 0.9979287,-0.99987 v -2.32937 H 16.61333 v 4.28751 c -2e-6,0.50627 -0.08242,1.31532 -0.965422,2.12523 -1.081172,0.99168 -3.175417,1.54597 -5.275689,1.54598 -2.1002726,10e-6 -4.1945031,-0.5544 -5.2756898,-1.54598 -0.8831422,-0.80995 -0.9654216,-1.61894 -0.9654216,-2.12523 z m 13.1479414,0.0267 c 1.626985,0.17392 2.826427,1.25681 2.830602,2.63687 0.0024,0.74934 -0.367776,1.78302 -0.972572,2.59461 -0.604795,0.81158 -1.418593,1.38889 -2.265653,1.40035 H 16.33443 c 0.211027,-0.22873 0.376624,-0.45949 0.504489,-0.68783 0.749124,-0.10026 1.601752,-0.62103 2.005607,-1.22156 0.444916,-0.6616 0.719026,-1.43666 0.717079,-2.08362 -0.002,-0.64696 -0.328852,-1.18075 -0.815246,-1.51087 -0.405755,-0.2754 -0.915326,-0.42219 -1.46731,-0.46809 z m 0,1.32688 c 0.438861,0.0449 0.821902,0.16737 1.093493,0.35172 0.339429,0.23037 0.522015,0.5238 0.523344,0.96282 0.0014,0.43902 -0.229001,1.15192 -0.604609,1.71046 -0.252214,0.37504 -0.715314,0.66766 -1.134451,0.82369 0.09574,-0.35528 0.122219,-0.6741 0.122219,-0.91471 z m -10.8159762,4.63923 c -0.1838348,-7.3e-4 -0.3334451,0.14773 -0.3341607,0.33156 -6.658e-4,0.18486 0.1493106,0.33489 0.3341607,0.33416 h 7.9879702 c 0.183835,-7.3e-4 0.33228,-0.15032 0.331562,-0.33416 -6.66e-4,-0.18282 -0.148742,-0.33084 -0.331562,-0.33156 z m -3.6614517,2.66093 H 18.778214 c 0.190162,0 0.331561,0.14399 0.331561,0.33416 0,0.19017 -0.141399,0.33156 -0.331561,0.33156 H 2.8016211 c -0.1901591,0 -0.3341608,-0.14139 -0.3341608,-0.33156 0,-0.19017 0.1440017,-0.33416 0.3341608,-0.33416 z m 2.3001073,1.33208 H 16.478106 l -0.668318,0.66573 H 5.7674468 Z"
       style="color:#000000;font-style:normal;font-variant:normal;font-weight:normal;font-stretch:normal;font-size:medium;line-height:normal;font-family:sans-serif;font-variant-ligatures:normal;font-variant-position:normal;font-variant-caps:normal;font-variant-numeric:normal;font-variant-alternates:normal;font-variant-east-asian:normal;font-feature-settings:normal;font-variation-settings:normal;text-indent:0;text-align:start;text-decoration:none;text-decoration-line:none;text-decoration-style:solid;text-decoration-color:#000000;letter-spacing:normal;word-spacing:normal;text-transform:none;writing-mode:lr-tb;direction:ltr;text-orientation:mixed;dominant-baseline:auto;baseline-shift:baseline;text-anchor:start;white-space:normal;shape-padding:0;shape-margin:0;inline-size:0;clip-rule:nonzero;display:inline;overflow:visible;visibility:visible;opacity:1;isolation:auto;mix-blend-mode:normal;color-interpolation:sRGB;color-interpolation-filters:linearRGB;solid-color:#000000;solid-opacity:1;vector-effect:none;fill:#000000;fill-opacity:1;fill-rule:nonzero;stroke:none;stroke-width:0.529168;stroke-linecap:round;stroke-linejoin:round;stroke-miterlimit:4;stroke-dasharray:none;stroke-dashoffset:0;stroke-opacity:1;color-rendering:auto;image-rendering:auto;shape-rendering:auto;text-rendering:auto;enable-background:accumulate;stop-color:#000000;stop-opacity:1"
       id="path1184" />
  </g>
</svg>
