<?xml version="1.0" encoding="UTF-8" standalone="no"?>
<!-- Created with Inkscape (http://www.inkscape.org/) -->

<svg
   width="64pt"
   height="64pt"
   viewBox="0 0 22.577778 22.577778"
   version="1.1"
   id="svg831"
   inkscape:version="1.1.1 (3bf5ae0d25, 2021-09-20)"
   sodipodi:docname="Ex.svg"
   inkscape:export-filename="C:\Users\User\Desktop\CARLOS PROJECT\4. APRIL 1\Done\1 - Tomato.png"
   inkscape:export-xdpi="576"
   inkscape:export-ydpi="576"
   xmlns:inkscape="http://www.inkscape.org/namespaces/inkscape"
   xmlns:sodipodi="http://sodipodi.sourceforge.net/DTD/sodipodi-0.dtd"
   xmlns="http://www.w3.org/2000/svg"
   xmlns:svg="http://www.w3.org/2000/svg"
   xmlns:rdf="http://www.w3.org/1999/02/22-rdf-syntax-ns#"
   xmlns:cc="http://creativecommons.org/ns#"
   xmlns:dc="http://purl.org/dc/elements/1.1/">
  <defs
     id="defs825">
    <pattern
       id="EMFhbasepattern"
       patternUnits="userSpaceOnUse"
       width="6"
       height="6"
       x="0"
       y="0" />
    <pattern
       id="EMFhbasepattern-9"
       patternUnits="userSpaceOnUse"
       width="6"
       height="6"
       x="0"
       y="0" />
    <pattern
       id="EMFhbasepattern-0"
       patternUnits="userSpaceOnUse"
       width="6"
       height="6"
       x="0"
       y="0" />
    <pattern
       id="EMFhbasepattern-7"
       patternUnits="userSpaceOnUse"
       width="6"
       height="6"
       x="0"
       y="0" />
    <pattern
       id="EMFhbasepattern-2"
       patternUnits="userSpaceOnUse"
       width="6"
       height="6"
       x="0"
       y="0" />
    <pattern
       id="EMFhbasepattern-98"
       patternUnits="userSpaceOnUse"
       width="6"
       height="6"
       x="0"
       y="0" />
    <pattern
       id="EMFhbasepattern-6"
       patternUnits="userSpaceOnUse"
       width="6"
       height="6"
       x="0"
       y="0" />
    <pattern
       id="EMFhbasepattern-01"
       patternUnits="userSpaceOnUse"
       width="6"
       height="6"
       x="0"
       y="0" />
    <pattern
       id="EMFhbasepattern-07"
       patternUnits="userSpaceOnUse"
       width="6"
       height="6"
       x="0"
       y="0" />
    <pattern
       id="EMFhbasepattern-8"
       patternUnits="userSpaceOnUse"
       width="6"
       height="6"
       x="0"
       y="0" />
    <pattern
       id="EMFhbasepattern-4"
       patternUnits="userSpaceOnUse"
       width="6"
       height="6"
       x="0"
       y="0" />
    <pattern
       id="EMFhbasepattern-40"
       patternUnits="userSpaceOnUse"
       width="6"
       height="6"
       x="0"
       y="0" />
    <pattern
       id="EMFhbasepattern-08"
       patternUnits="userSpaceOnUse"
       width="6"
       height="6"
       x="0"
       y="0" />
    <pattern
       id="EMFhbasepattern-04"
       patternUnits="userSpaceOnUse"
       width="6"
       height="6"
       x="0"
       y="0" />
    <pattern
       id="EMFhbasepattern-014"
       patternUnits="userSpaceOnUse"
       width="6"
       height="6"
       x="0"
       y="0" />
    <pattern
       id="EMFhbasepattern-27"
       patternUnits="userSpaceOnUse"
       width="6"
       height="6"
       x="0"
       y="0" />
    <pattern
       id="EMFhbasepattern-09"
       patternUnits="userSpaceOnUse"
       width="6"
       height="6"
       x="0"
       y="0" />
    <pattern
       id="EMFhbasepattern-5"
       patternUnits="userSpaceOnUse"
       width="6"
       height="6"
       x="0"
       y="0" />
    <pattern
       id="EMFhbasepattern-018"
       patternUnits="userSpaceOnUse"
       width="6"
       height="6"
       x="0"
       y="0" />
  </defs>
  <sodipodi:namedview
     id="base"
     pagecolor="#ffffff"
     bordercolor="#666666"
     borderopacity="1.0"
     inkscape:pageopacity="0.0"
     inkscape:pageshadow="2"
     inkscape:zoom="6.4882571"
     inkscape:cx="28.204801"
     inkscape:cy="42.615451"
     inkscape:document-units="pt"
     inkscape:current-layer="layer1"
     showgrid="false"
     units="pt"
     inkscape:window-width="1920"
     inkscape:window-height="1001"
     inkscape:window-x="-9"
     inkscape:window-y="-9"
     inkscape:window-maximized="1"
     inkscape:pagecheckerboard="true"
     inkscape:showpageshadow="false"
     inkscape:object-paths="true"
     inkscape:snap-intersection-paths="true"
     inkscape:snap-smooth-nodes="true"
     inkscape:snap-midpoints="true"
     showguides="true"
     inkscape:snap-bbox="true"
     inkscape:bbox-nodes="true"
     inkscape:snap-nodes="false"
     inkscape:snap-global="true"
     inkscape:lockguides="true">
    <inkscape:grid
       type="xygrid"
       id="grid1378" />
    <sodipodi:guide
       position="0.97013831,21.607643"
       orientation="78.000048,0"
       id="guide1380"
       inkscape:locked="true" />
    <sodipodi:guide
       position="0.97013831,0.97013129"
       orientation="0,78.000005"
       id="guide1382"
       inkscape:locked="true" />
    <sodipodi:guide
       position="21.607639,0.97013129"
       orientation="-78.000048,0"
       id="guide1384"
       inkscape:locked="true" />
    <sodipodi:guide
       position="21.607639,21.607643"
       orientation="0,-78.000005"
       id="guide1386"
       inkscape:locked="true" />
  </sodipodi:namedview>
  <metadata
     id="metadata828">
    <rdf:RDF>
      <cc:Work
         rdf:about="">
        <dc:format>image/svg+xml</dc:format>
        <dc:type
           rdf:resource="http://purl.org/dc/dcmitype/StillImage" />
      </cc:Work>
    </rdf:RDF>
  </metadata>
  <g
     inkscape:label="Icon"
     inkscape:groupmode="layer"
     id="layer1"
     transform="translate(0,-274.42223)">
    <path
       id="path7743"
       style="color:#000000;display:inline;fill:#000000;stroke-width:1;stroke-linecap:round;stroke-linejoin:round;-inkscape-stroke:none"
       d="m 11.507641,296.02779 c 2.466159,-0.0502 5.086337,-0.85819 7.035373,-2.76555 2.014024,-1.97096 3.275685,-5.1061 2.917597,-9.66186 -0.01676,-0.20138 -0.207706,-0.34144 -0.404826,-0.29696 -0.387155,0.0895 -0.805043,0.1838 -1.233967,0.29306 0.148121,-0.60469 0.238888,-1.36683 0.09162,-2.19372 -0.189356,-1.06323 -0.786493,-2.22216 -2.107298,-3.2152 -0.09822,-0.0743 -0.229459,-0.0884 -0.341144,-0.0363 -0.203764,0.0944 -0.387494,0.21454 -0.557528,0.35153 -0.113848,-0.50381 -0.227075,-1.03699 -0.395078,-1.52832 -0.231703,-0.6776 -0.583283,-1.31199 -1.053263,-1.49316 -0.616133,-0.23222 -1.035356,0.0264 -1.476403,0.36121 -0.626593,0.63961 -1.494334,0.72876 -2.249604,0.86617 -0.721182,-0.58115 -1.542686,-0.93915 -2.3847625,-1.09945 -2.4541717,-0.46713 -5.0801561,0.74648 -5.8871793,3.02157 -0.1670138,-0.23925 -0.4067287,-0.23163 -0.5620749,-0.0429 -1.2695886,1.55304 -1.236492,3.75887 -0.5432311,5.59802 -0.1645852,-0.13502 -0.3305645,-0.28387 -0.4983968,-0.45031 -0.083508,-0.0834 -0.2048982,-0.11618 -0.3190499,-0.0864 v 6.5e-4 c -0.1145475,0.0302 -0.2043891,0.11908 -0.2358788,0.23328 -0.60015216,2.1919 -0.1044264,5.19264 1.5127335,7.68453 1.6171538,2.49189 4.3978234,4.46217 8.3232738,4.46217 z m -0.428218,-14.77254 c 0.254451,-0.43006 0.47923,-0.62516 0.682939,-0.72973 0.237138,-0.12172 0.484615,-0.13143 0.810299,-0.16894 0.325684,-0.0375 0.729753,-0.12059 1.110507,-0.43277 0.380753,-0.31212 0.730376,-0.82385 1.085164,-1.68948 0.06839,-0.16956 -0.01286,-0.36255 -0.181944,-0.43212 -0.179492,-0.0747 -0.366411,-0.003 -0.434066,0.17935 -0.330995,0.80759 -0.63516,1.21877 -0.891523,1.42891 -0.256364,0.21016 -0.474018,0.25185 -0.764164,0.28526 -0.517149,0.0511 -0.834079,0.14002 -1.224871,0.3496 0.106632,-0.54078 0.255134,-1.03982 0.576371,-1.35419 0.13048,-0.12833 0.132803,-0.33796 0.0052,-0.46916 -0.158648,-0.14736 -0.338691,-0.12659 -0.471754,-0.008 -0.724899,0.7094 -0.801128,1.77654 -0.919465,2.56084 -0.8280891,-0.42562 -1.3742126,-0.63034 -2.3802136,-0.38272 0.1204248,-1.47566 0.743215,-2.08169 1.6712827,-2.48289 0.9588689,-0.4145 2.2662189,-0.5254 3.5316569,-0.83499 0.46067,-0.11267 0.79513,-0.45699 1.115056,-0.71478 0.774203,-0.74264 1.217101,0.0773 1.480889,0.83044 0.188655,0.55171 0.314977,1.22195 0.471754,1.85973 -0.653822,0.73687 -0.897861,1.43648 -2.011128,2.20477 -0.646309,0.36142 -1.534318,0.56749 -2.462088,0.79145 z M 8.34312,276.17838 c 0.8510124,0.008 1.716953,0.2303 2.49003,0.70697 -0.465875,0.10349 -0.9198234,0.23058 -1.342485,0.41328 -1.0873658,0.47004 -1.9432046,1.3896 -2.0761077,3.08199 -0.3116567,-0.24252 -0.4786955,-0.63177 -0.5347846,-1.09296 -0.073246,-0.60224 0.085381,-1.2925 0.3612884,-1.70637 0.1026132,-0.15267 0.06186,-0.35964 -0.090972,-0.46201 -0.2004032,-0.11178 -0.3618497,-0.0659 -0.461357,0.0936 -0.3894801,0.58421 -0.5622607,1.39047 -0.4691552,2.15602 0.059755,0.49136 0.2459956,0.98123 0.5841695,1.34574 -0.9815092,0.10072 -1.8507603,-0.17799 -2.4237511,-0.90322 -0.1374538,-0.17591 -0.268583,-0.36933 -0.4080729,-0.56337 0.4398588,-1.90126 2.3650191,-3.08627 4.3711976,-3.06966 z m 9.24209,2.73369 c 1.030203,0.8512 1.521154,1.75545 1.672583,2.6057 0.156616,0.87939 -0.0016,1.70221 -0.185193,2.28469 -1.483275,0.44319 -2.98706,1.13549 -3.817569,2.50238 -0.488506,0.80402 -0.864738,1.93317 -1.35873,2.41661 -0.137824,0.13487 -0.354713,0.25445 -0.614059,0.37168 -0.33969,-0.3905 -0.596667,-0.90455 -0.888925,-1.42826 -0.11919,-0.21359 -0.245962,-0.4298 -0.29358,-0.57709 -0.04762,-0.14727 0.01261,-0.18844 0.09994,-0.23061 1.376009,-0.17938 1.908605,-0.39645 2.467936,-0.92336 0.130478,-0.12834 0.132799,-0.33796 0.0052,-0.46915 -0.149956,-0.14041 -0.327874,-0.14522 -0.471754,-0.005 -0.448887,0.43928 -0.959002,0.50828 -1.493237,0.59196 -0.174737,0.0274 -0.351126,0.0534 -0.525038,0.10336 0.114911,-0.30719 0.277729,-0.56237 0.476302,-0.78821 0.379365,-0.43143 0.907577,-0.75166 1.510134,-1.03643 1.205114,-0.56954 2.698783,-0.96401 3.669414,-2.04361 0.122462,-0.13647 0.111409,-0.3463 -0.0247,-0.46915 -0.165769,-0.13732 -0.347097,-0.10626 -0.469156,0.0246 -0.788843,0.87739 -2.18028,1.28148 -3.460178,1.88637 -0.708835,0.32552 -1.320478,0.74717 -1.753159,1.22877 -0.08159,-0.45491 -0.281155,-0.87618 -0.636803,-1.22421 -0.187945,-0.14052 -0.340772,-0.10525 -0.469154,0.005 -0.129339,0.13152 -0.127006,0.34315 0.0052,0.47177 0.530117,0.51876 0.592422,1.28003 0.35479,2.13913 -0.92895,-0.67484 -2.2550095,-0.93738 -3.2658898,-0.97469 0.117446,-0.60254 0.3753994,-1.02821 0.7323234,-1.36848 0.4230196,-0.40329 1.0032064,-0.68104 1.6654344,-0.89867 1.324457,-0.43527 2.943856,-0.59913 4.147667,-1.27231 1.628482,-1.03751 1.800701,-2.12404 2.920199,-2.9228 z m -12.2350634,2.36528 c 1.5075869,0.36885 2.4334295,-0.15686 3.1703686,-0.30735 0.3684682,-0.0753 0.68788,-0.0804 1.1248017,0.11115 0.3898321,0.17086 0.8740871,0.51626 1.4938881,1.15016 -0.810836,0.20304 -1.6862382,0.50896 -2.3412259,0.86098 -0.2596391,0.12335 -1.875538,-0.0113 -2.6869182,-0.0468 -0.8769425,-0.0434 -1.5792925,-0.2094 -2.0306227,-0.86943 -0.1247151,-0.17597 -0.3190962,-0.16907 -0.4620063,-0.0858 -0.1506486,0.10399 -0.1889753,0.31016 -0.085772,0.46136 0.577928,0.84517 1.4983576,1.08832 2.4042554,1.15079 -0.3197888,0.13861 -0.6044278,0.30386 -0.8252454,0.50489 -0.1353379,0.1236 -0.1452157,0.33338 -0.022091,0.46916 0.1235998,0.13534 0.3333824,0.14522 0.4691561,0.0221 0.8209421,-0.53501 1.6556262,-0.76736 2.5732043,-0.89218 -0.3372197,0.41261 -0.5805667,0.93058 -0.6868374,1.56277 -0.40824,0.005 -0.8097081,0.02 -1.2034274,0.0214 -0.9686398,0.004 -1.8916977,-0.059 -2.8396214,-0.52308 -0.9063666,-1.64193 -1.0611339,-3.82706 -0.1273597,-5.38554 0.5655782,0.76042 0.9466228,1.41776 2.0754538,1.7954 z m 12.7289104,11.51054 c -1.667982,1.63231 -3.892549,2.36955 -6.060674,2.50887 0.418433,-0.87194 1.249912,-1.77141 2.221663,-2.65897 0.439038,-0.33001 1.102756,-0.56848 1.785647,-0.76092 0.805425,-0.22697 1.613031,-0.37845 2.166429,-0.72453 0.15621,-0.0976 0.203399,-0.30354 0.105272,-0.45941 -0.09749,-0.15463 -0.301475,-0.20163 -0.456808,-0.10525 -0.350209,0.21902 -1.139877,0.40847 -1.958494,0.63812 1.319233,-1.22168 3.168899,-2.3794 3.694757,-4.05215 0.05114,-0.17599 -0.04968,-0.36019 -0.22548,-0.41197 -0.176195,-0.0516 -0.360848,0.0493 -0.412623,0.22547 -0.444515,0.95284 -0.987567,1.52562 -1.651139,2.15083 0.04927,-0.54701 0.06275,-1.1589 0.263169,-1.56666 0.08293,-0.164 0.01716,-0.36417 -0.146585,-0.44688 -0.163756,-0.0827 -0.363744,-0.0179 -0.447332,0.14539 -0.517698,0.81 -0.07751,2.08008 -0.629654,2.71552 -0.999935,0.85358 -2.078948,1.70789 -2.966982,2.54591 0.0089,-0.32494 0.02493,-0.67046 0.04743,-0.97861 0.03274,-0.20125 0.0874,-0.33286 0.201438,-0.44445 0.132206,-0.12862 0.134538,-0.34025 0.0052,-0.47177 -0.148909,-0.14065 -0.363409,-0.0993 -0.469157,-0.005 -0.238406,0.2333 -0.349552,0.53174 -0.395728,0.81549 -0.08924,0.68498 0.121506,1.29046 -0.309954,2.03777 -0.379637,0.43873 -0.703954,0.88993 -0.944158,1.35743 -0.09719,-0.71055 -0.203872,-1.4625 -0.19234,-2.17488 0.01598,-0.98681 0.237204,-1.81882 0.948057,-2.34057 0.272905,-0.20029 0.643281,-0.35071 1.024082,-0.50814 0.380801,-0.15744 0.77658,-0.3186 1.085814,-0.62121 0.709152,-0.69399 1.052001,-1.87019 1.463348,-2.54722 0.93912,-1.54564 3.086163,-2.12941 4.931973,-2.56605 0.323931,2.33683 -0.707467,6.70095 -2.677171,8.70339 z M 6.2436197,286.05402 c 2.3865327,0.0666 4.4185143,-0.11292 5.5700763,1.93509 0.247376,0.4433 0.484619,0.93558 0.826545,1.37433 -0.263461,0.11305 -0.534124,0.24408 -0.782358,0.42627 -0.50809,0.37292 -0.818834,0.86804 -1.000041,1.41721 -0.651595,-0.33547 -1.2560262,-0.85854 -1.8896155,-1.33533 -0.3043692,-0.32446 -0.5992722,-0.95261 -0.9461072,-1.53613 -0.1853562,-0.31184 -0.3912797,-0.61232 -0.6634444,-0.84928 -0.2721662,-0.23697 -0.6282263,-0.40472 -1.0364295,-0.39833 -0.1837585,0.004 -0.3298232,0.15544 -0.3261992,0.33919 0.00356,0.18273 0.1538461,0.32838 0.336596,0.3262 0.2338571,-0.004 0.4068682,0.0751 0.5893677,0.23392 0.1824994,0.15891 0.3583843,0.40535 0.5276366,0.6901 0.072564,0.1221 0.1427696,0.25057 0.213134,0.38208 -0.0015,-6.6e-4 -0.00306,-0.001 -0.00455,-0.003 -0.0015,-8.6e-4 -0.00303,-10e-4 -0.00455,-0.003 -0.6708616,-0.28799 -1.3159486,-0.32689 -1.8889653,-0.41262 -0.5730164,-0.0858 -1.0662764,-0.20317 -1.5491195,-0.60626 -0.1996815,-0.1276 -0.3672643,-0.0631 -0.4691527,0.0416 -0.1182671,0.14097 -0.099633,0.35117 0.041587,0.46915 0.6091449,0.50854 1.2685537,0.66252 1.8785672,0.75377 0.610009,0.0913 1.1779716,0.13212 1.7239148,0.36648 0.5194818,0.23266 1.0375923,0.65512 1.6004548,1.09296 -1.2497764,-0.15577 -2.0927159,0.10399 -2.8305242,0.42691 -0.1686095,0.0743 -0.2446541,0.27162 -0.1695976,0.43992 0.074362,0.16861 0.2716125,0.24466 0.439914,0.1696 1.6223624,-0.72592 2.7045108,-0.50564 4.252285,0.20534 -0.02744,0.21616 -0.04194,0.43495 -0.04549,0.65369 -0.01517,0.93679 0.144815,1.90241 0.249523,2.70837 -3.5686897,-0.0806 -6.032444,-1.87404 -7.5142732,-4.15741 -1.4082666,-2.17001 -1.8015679,-4.73532 -1.4367056,-6.65785 1.1864476,1.30617 2.8246511,1.50142 4.3075137,1.5056 z"
       sodipodi:nodetypes="cscccscccscccccccccccscccscccccscccccccccccccccccccscccsccccccscsscsccccccccssccccccccccsccccccccccccccccccccccccccccccccccccccccccccccccccccccscsccssccccsccccccccccccccscsc" />
  </g>
</svg>
